<svg width="315" height="242" viewBox="0 0 315 242" fill="none" xmlns="http://www.w3.org/2000/svg">
<path d="M10.5312 201.688V242H0V195.188H9.8125L10.5312 201.688ZM31.2812 211.688V212.344C31.2812 214.802 31 217.083 30.4375 219.188C29.875 221.292 29.0417 223.125 27.9375 224.688C26.8333 226.25 25.4583 227.469 23.8125 228.344C22.1875 229.198 20.3021 229.625 18.1562 229.625C16.1354 229.625 14.3958 229.177 12.9375 228.281C11.4792 227.385 10.2604 226.146 9.28125 224.562C8.30208 222.979 7.51042 221.167 6.90625 219.125C6.30208 217.083 5.82292 214.927 5.46875 212.656V211.812C5.82292 209.375 6.30208 207.115 6.90625 205.031C7.51042 202.927 8.30208 201.094 9.28125 199.531C10.2604 197.969 11.4688 196.75 12.9062 195.875C14.3646 195 16.1042 194.562 18.125 194.562C20.2708 194.562 22.1562 194.969 23.7812 195.781C25.4271 196.594 26.8021 197.76 27.9062 199.281C29.0312 200.781 29.875 202.583 30.4375 204.688C31 206.792 31.2812 209.125 31.2812 211.688ZM20.75 212.344V211.688C20.75 210.375 20.6562 209.177 20.4688 208.094C20.2812 206.99 19.9792 206.031 19.5625 205.219C19.1667 204.406 18.6354 203.781 17.9688 203.344C17.3021 202.906 16.4792 202.688 15.5 202.688C14.375 202.688 13.4271 202.865 12.6562 203.219C11.9062 203.552 11.3021 204.073 10.8438 204.781C10.4062 205.469 10.0938 206.333 9.90625 207.375C9.73958 208.396 9.66667 209.594 9.6875 210.969V213.531C9.64583 215.115 9.80208 216.51 10.1562 217.719C10.5104 218.906 11.125 219.833 12 220.5C12.875 221.167 14.0625 221.5 15.5625 221.5C16.5625 221.5 17.3958 221.271 18.0625 220.812C18.7292 220.333 19.2604 219.677 19.6562 218.844C20.0521 217.99 20.3333 217.01 20.5 215.906C20.6667 214.802 20.75 213.615 20.75 212.344Z" fill="#8247FF"/>
<path d="M34.6562 212.438V211.781C34.6562 209.302 35.0104 207.021 35.7188 204.938C36.4271 202.833 37.4688 201.01 38.8438 199.469C40.2188 197.927 41.9167 196.729 43.9375 195.875C45.9583 195 48.2917 194.562 50.9375 194.562C53.6042 194.562 55.9479 195 57.9688 195.875C60.0104 196.729 61.7188 197.927 63.0938 199.469C64.4688 201.01 65.5104 202.833 66.2188 204.938C66.9271 207.021 67.2812 209.302 67.2812 211.781V212.438C67.2812 214.896 66.9271 217.177 66.2188 219.281C65.5104 221.365 64.4688 223.188 63.0938 224.75C61.7188 226.292 60.0208 227.49 58 228.344C55.9792 229.198 53.6458 229.625 51 229.625C48.3542 229.625 46.0104 229.198 43.9688 228.344C41.9271 227.49 40.2188 226.292 38.8438 224.75C37.4688 223.188 36.4271 221.365 35.7188 219.281C35.0104 217.177 34.6562 214.896 34.6562 212.438ZM45.1875 211.781V212.438C45.1875 213.708 45.2812 214.896 45.4688 216C45.6562 217.104 45.9688 218.073 46.4062 218.906C46.8438 219.719 47.4375 220.354 48.1875 220.812C48.9375 221.271 49.875 221.5 51 221.5C52.1042 221.5 53.0208 221.271 53.75 220.812C54.5 220.354 55.0938 219.719 55.5312 218.906C55.9688 218.073 56.2812 217.104 56.4688 216C56.6562 214.896 56.75 213.708 56.75 212.438V211.781C56.75 210.552 56.6562 209.396 56.4688 208.312C56.2812 207.208 55.9688 206.24 55.5312 205.406C55.0938 204.552 54.5 203.885 53.75 203.406C53 202.927 52.0625 202.688 50.9375 202.688C49.8333 202.688 48.9062 202.927 48.1562 203.406C47.4271 203.885 46.8438 204.552 46.4062 205.406C45.9688 206.24 45.6562 207.208 45.4688 208.312C45.2812 209.396 45.1875 210.552 45.1875 211.781Z" fill="#8247FF"/>
<path d="M83.0938 181V229H72.5312V181H83.0938Z" fill="#8247FF"/>
<path d="M100.719 195.188V229H90.1562V195.188H100.719ZM89.5312 186.469C89.5312 184.969 90.0729 183.74 91.1562 182.781C92.2396 181.823 93.6458 181.344 95.375 181.344C97.1042 181.344 98.5104 181.823 99.5938 182.781C100.677 183.74 101.219 184.969 101.219 186.469C101.219 187.969 100.677 189.198 99.5938 190.156C98.5104 191.115 97.1042 191.594 95.375 191.594C93.6458 191.594 92.2396 191.115 91.1562 190.156C90.0729 189.198 89.5312 187.969 89.5312 186.469Z" fill="#8247FF"/>
<path d="M107.312 181H117.844V220.688L116.75 229H107.312V181ZM138.594 211.719V212.375C138.594 214.938 138.333 217.271 137.812 219.375C137.292 221.479 136.49 223.302 135.406 224.844C134.323 226.365 132.958 227.542 131.312 228.375C129.667 229.208 127.719 229.625 125.469 229.625C123.427 229.625 121.677 229.188 120.219 228.312C118.76 227.417 117.542 226.188 116.562 224.625C115.583 223.042 114.792 221.219 114.188 219.156C113.583 217.073 113.104 214.844 112.75 212.469V211.688C113.104 209.333 113.583 207.125 114.188 205.062C114.792 202.979 115.583 201.156 116.562 199.594C117.542 198.01 118.75 196.781 120.188 195.906C121.646 195.01 123.385 194.562 125.406 194.562C127.677 194.562 129.635 194.99 131.281 195.844C132.948 196.698 134.323 197.896 135.406 199.438C136.49 200.979 137.292 202.792 137.812 204.875C138.333 206.958 138.594 209.24 138.594 211.719ZM128.062 212.375V211.719C128.062 210.49 127.99 209.333 127.844 208.25C127.698 207.167 127.438 206.208 127.062 205.375C126.688 204.542 126.156 203.885 125.469 203.406C124.781 202.927 123.885 202.688 122.781 202.688C121.656 202.688 120.708 202.875 119.938 203.25C119.188 203.625 118.583 204.167 118.125 204.875C117.688 205.562 117.375 206.417 117.188 207.438C117 208.438 116.917 209.573 116.938 210.844V213.312C116.896 215.042 117.052 216.521 117.406 217.75C117.76 218.979 118.375 219.917 119.25 220.562C120.125 221.208 121.323 221.531 122.844 221.531C123.969 221.531 124.875 221.312 125.562 220.875C126.271 220.438 126.802 219.812 127.156 219C127.51 218.188 127.75 217.219 127.875 216.094C128 214.969 128.062 213.729 128.062 212.375Z" fill="#8247FF"/>
<path d="M141.969 212.438V211.781C141.969 209.302 142.323 207.021 143.031 204.938C143.74 202.833 144.781 201.01 146.156 199.469C147.531 197.927 149.229 196.729 151.25 195.875C153.271 195 155.604 194.562 158.25 194.562C160.917 194.562 163.26 195 165.281 195.875C167.323 196.729 169.031 197.927 170.406 199.469C171.781 201.01 172.823 202.833 173.531 204.938C174.24 207.021 174.594 209.302 174.594 211.781V212.438C174.594 214.896 174.24 217.177 173.531 219.281C172.823 221.365 171.781 223.188 170.406 224.75C169.031 226.292 167.333 227.49 165.312 228.344C163.292 229.198 160.958 229.625 158.312 229.625C155.667 229.625 153.323 229.198 151.281 228.344C149.24 227.49 147.531 226.292 146.156 224.75C144.781 223.188 143.74 221.365 143.031 219.281C142.323 217.177 141.969 214.896 141.969 212.438ZM152.5 211.781V212.438C152.5 213.708 152.594 214.896 152.781 216C152.969 217.104 153.281 218.073 153.719 218.906C154.156 219.719 154.75 220.354 155.5 220.812C156.25 221.271 157.188 221.5 158.312 221.5C159.417 221.5 160.333 221.271 161.062 220.812C161.812 220.354 162.406 219.719 162.844 218.906C163.281 218.073 163.594 217.104 163.781 216C163.969 214.896 164.062 213.708 164.062 212.438V211.781C164.062 210.552 163.969 209.396 163.781 208.312C163.594 207.208 163.281 206.24 162.844 205.406C162.406 204.552 161.812 203.885 161.062 203.406C160.312 202.927 159.375 202.688 158.25 202.688C157.146 202.688 156.219 202.927 155.469 203.406C154.74 203.885 154.156 204.552 153.719 205.406C153.281 206.24 152.969 207.208 152.781 208.312C152.594 209.396 152.5 210.552 152.5 211.781Z" fill="#8247FF"/>
<path d="M177.969 212.438V211.781C177.969 209.302 178.323 207.021 179.031 204.938C179.74 202.833 180.781 201.01 182.156 199.469C183.531 197.927 185.229 196.729 187.25 195.875C189.271 195 191.604 194.562 194.25 194.562C196.917 194.562 199.26 195 201.281 195.875C203.323 196.729 205.031 197.927 206.406 199.469C207.781 201.01 208.823 202.833 209.531 204.938C210.24 207.021 210.594 209.302 210.594 211.781V212.438C210.594 214.896 210.24 217.177 209.531 219.281C208.823 221.365 207.781 223.188 206.406 224.75C205.031 226.292 203.333 227.49 201.312 228.344C199.292 229.198 196.958 229.625 194.312 229.625C191.667 229.625 189.323 229.198 187.281 228.344C185.24 227.49 183.531 226.292 182.156 224.75C180.781 223.188 179.74 221.365 179.031 219.281C178.323 217.177 177.969 214.896 177.969 212.438ZM188.5 211.781V212.438C188.5 213.708 188.594 214.896 188.781 216C188.969 217.104 189.281 218.073 189.719 218.906C190.156 219.719 190.75 220.354 191.5 220.812C192.25 221.271 193.188 221.5 194.312 221.5C195.417 221.5 196.333 221.271 197.062 220.812C197.812 220.354 198.406 219.719 198.844 218.906C199.281 218.073 199.594 217.104 199.781 216C199.969 214.896 200.062 213.708 200.062 212.438V211.781C200.062 210.552 199.969 209.396 199.781 208.312C199.594 207.208 199.281 206.24 198.844 205.406C198.406 204.552 197.812 203.885 197.062 203.406C196.312 202.927 195.375 202.688 194.25 202.688C193.146 202.688 192.219 202.927 191.469 203.406C190.74 203.885 190.156 204.552 189.719 205.406C189.281 206.24 188.969 207.208 188.781 208.312C188.594 209.396 188.5 210.552 188.5 211.781Z" fill="#8247FF"/>
<path d="M225.906 180.969V229H215.375V180.969H225.906ZM247.531 195.188L232.844 212.406L225.156 220.094L220.562 213.406L226.969 205.062L234.906 195.188H247.531ZM236.25 229L227.219 213.594L235 208.062L248.312 229H236.25Z" fill="#8247FF"/>
<path d="M266.031 229.625C263.281 229.625 260.823 229.198 258.656 228.344C256.49 227.469 254.656 226.271 253.156 224.75C251.677 223.229 250.542 221.479 249.75 219.5C248.979 217.521 248.594 215.427 248.594 213.219V212.031C248.594 209.552 248.938 207.26 249.625 205.156C250.312 203.031 251.333 201.177 252.688 199.594C254.042 198.01 255.74 196.781 257.781 195.906C259.823 195.01 262.198 194.562 264.906 194.562C267.302 194.562 269.448 194.948 271.344 195.719C273.24 196.49 274.844 197.594 276.156 199.031C277.49 200.469 278.5 202.208 279.188 204.25C279.896 206.292 280.25 208.583 280.25 211.125V215.406H252.625V208.812H269.969V208C269.99 206.875 269.792 205.917 269.375 205.125C268.979 204.333 268.396 203.729 267.625 203.312C266.854 202.896 265.917 202.688 264.812 202.688C263.667 202.688 262.719 202.938 261.969 203.438C261.24 203.938 260.667 204.625 260.25 205.5C259.854 206.354 259.573 207.344 259.406 208.469C259.24 209.594 259.156 210.781 259.156 212.031V213.219C259.156 214.469 259.323 215.604 259.656 216.625C260.01 217.646 260.51 218.521 261.156 219.25C261.823 219.958 262.615 220.51 263.531 220.906C264.469 221.302 265.531 221.5 266.719 221.5C268.156 221.5 269.573 221.229 270.969 220.688C272.365 220.146 273.562 219.25 274.562 218L279.344 223.688C278.656 224.667 277.677 225.615 276.406 226.531C275.156 227.448 273.656 228.198 271.906 228.781C270.156 229.344 268.198 229.625 266.031 229.625Z" fill="#8247FF"/>
<path d="M303.969 221.25V181H314.562V229H305.062L303.969 221.25ZM283.219 212.5V211.844C283.219 209.281 283.5 206.948 284.062 204.844C284.625 202.719 285.458 200.896 286.562 199.375C287.667 197.833 289.042 196.646 290.688 195.812C292.333 194.979 294.229 194.562 296.375 194.562C298.292 194.562 299.969 195.01 301.406 195.906C302.844 196.781 304.073 198.01 305.094 199.594C306.115 201.177 306.948 203.031 307.594 205.156C308.24 207.26 308.729 209.531 309.062 211.969V212.75C308.729 215.042 308.24 217.208 307.594 219.25C306.948 221.271 306.115 223.062 305.094 224.625C304.073 226.188 302.833 227.417 301.375 228.312C299.938 229.188 298.25 229.625 296.312 229.625C294.167 229.625 292.271 229.198 290.625 228.344C289 227.49 287.635 226.292 286.531 224.75C285.448 223.208 284.625 221.396 284.062 219.312C283.5 217.229 283.219 214.958 283.219 212.5ZM293.75 211.844V212.5C293.75 213.771 293.833 214.948 294 216.031C294.167 217.115 294.448 218.073 294.844 218.906C295.26 219.719 295.802 220.354 296.469 220.812C297.156 221.271 298 221.5 299 221.5C300.354 221.5 301.469 221.177 302.344 220.531C303.24 219.885 303.896 218.969 304.312 217.781C304.75 216.594 304.938 215.198 304.875 213.594V211.125C304.917 209.75 304.823 208.542 304.594 207.5C304.365 206.438 304 205.552 303.5 204.844C303.021 204.135 302.406 203.604 301.656 203.25C300.927 202.875 300.062 202.688 299.062 202.688C298.083 202.688 297.25 202.917 296.562 203.375C295.896 203.833 295.354 204.479 294.938 205.312C294.521 206.125 294.219 207.094 294.031 208.219C293.844 209.323 293.75 210.531 293.75 211.844Z" fill="#8247FF"/>
<path fill-rule="evenodd" clip-rule="evenodd" d="M285 170.667C285 147.102 265.897 128 242.333 128C218.769 128 199.667 147.102 199.667 170.667L285 170.667Z" fill="#CFBEFF"/>
<path fill-rule="evenodd" clip-rule="evenodd" d="M157.079 85.3334C180.643 85.3334 199.746 66.2309 199.746 42.6667C199.746 19.1025 180.643 1.15802e-05 157.079 7.46008e-06C133.515 3.33999e-06 114.412 19.1025 114.412 42.6667C114.412 66.2308 133.515 85.3334 157.079 85.3334ZM157.079 71.1112C172.788 71.1112 185.524 58.3762 185.524 42.6667C185.524 26.9573 172.788 14.2223 157.079 14.2223C141.37 14.2223 128.635 26.9573 128.635 42.6667C128.635 58.3762 141.37 71.1112 157.079 71.1112Z" fill="#3F2446"/>
<path d="M89 170.667C55.8629 170.667 29 143.804 29 110.667L29 85.6666L54 85.6666C87.1371 85.6666 114 112.53 114 145.667L114 170.667L89 170.667Z" fill="#8247FF"/>
<path d="M114 128.667C114 104.918 133.252 85.6666 157 85.6666V85.6666C180.748 85.6666 200 104.918 200 128.667L200 170.667L114 170.667L114 128.667Z" fill="#FFB932"/>
</svg>
