<svg width="329" height="136" viewBox="0 0 329 136" fill="none" xmlns="http://www.w3.org/2000/svg">
<path d="M169.641 75.3438V95.5H164.375V72.0938H169.281L169.641 75.3438ZM180.016 80.3438V80.6719C180.016 81.901 179.875 83.0417 179.594 84.0938C179.312 85.1458 178.896 86.0625 178.344 86.8438C177.792 87.625 177.104 88.2344 176.281 88.6719C175.469 89.099 174.526 89.3125 173.453 89.3125C172.443 89.3125 171.573 89.0885 170.844 88.6406C170.115 88.1927 169.505 87.5729 169.016 86.7812C168.526 85.9896 168.13 85.0833 167.828 84.0625C167.526 83.0417 167.286 81.9635 167.109 80.8281V80.4062C167.286 79.1875 167.526 78.0573 167.828 77.0156C168.13 75.9635 168.526 75.0469 169.016 74.2656C169.505 73.4844 170.109 72.875 170.828 72.4375C171.557 72 172.427 71.7812 173.438 71.7812C174.51 71.7812 175.453 71.9844 176.266 72.3906C177.089 72.7969 177.776 73.3802 178.328 74.1406C178.891 74.8906 179.312 75.7917 179.594 76.8438C179.875 77.8958 180.016 79.0625 180.016 80.3438ZM174.75 80.6719V80.3438C174.75 79.6875 174.703 79.0885 174.609 78.5469C174.516 77.9948 174.365 77.5156 174.156 77.1094C173.958 76.7031 173.693 76.3906 173.359 76.1719C173.026 75.9531 172.615 75.8438 172.125 75.8438C171.562 75.8438 171.089 75.9323 170.703 76.1094C170.328 76.276 170.026 76.5365 169.797 76.8906C169.578 77.2344 169.422 77.6667 169.328 78.1875C169.245 78.6979 169.208 79.2969 169.219 79.9844V81.2656C169.198 82.0573 169.276 82.7552 169.453 83.3594C169.63 83.9531 169.938 84.4167 170.375 84.75C170.812 85.0833 171.406 85.25 172.156 85.25C172.656 85.25 173.073 85.1354 173.406 84.9062C173.74 84.6667 174.005 84.3385 174.203 83.9219C174.401 83.4948 174.542 83.0052 174.625 82.4531C174.708 81.901 174.75 81.3073 174.75 80.6719ZM181.703 80.7188V80.3906C181.703 79.151 181.88 78.0104 182.234 76.9688C182.589 75.9167 183.109 75.0052 183.797 74.2344C184.484 73.4635 185.333 72.8646 186.344 72.4375C187.354 72 188.521 71.7812 189.844 71.7812C191.177 71.7812 192.349 72 193.359 72.4375C194.38 72.8646 195.234 73.4635 195.922 74.2344C196.609 75.0052 197.13 75.9167 197.484 76.9688C197.839 78.0104 198.016 79.151 198.016 80.3906V80.7188C198.016 81.9479 197.839 83.0885 197.484 84.1406C197.13 85.1823 196.609 86.0938 195.922 86.875C195.234 87.6458 194.385 88.2448 193.375 88.6719C192.365 89.099 191.198 89.3125 189.875 89.3125C188.552 89.3125 187.38 89.099 186.359 88.6719C185.339 88.2448 184.484 87.6458 183.797 86.875C183.109 86.0938 182.589 85.1823 182.234 84.1406C181.88 83.0885 181.703 81.9479 181.703 80.7188ZM186.969 80.3906V80.7188C186.969 81.3542 187.016 81.9479 187.109 82.5C187.203 83.0521 187.359 83.5365 187.578 83.9531C187.797 84.3594 188.094 84.6771 188.469 84.9062C188.844 85.1354 189.312 85.25 189.875 85.25C190.427 85.25 190.885 85.1354 191.25 84.9062C191.625 84.6771 191.922 84.3594 192.141 83.9531C192.359 83.5365 192.516 83.0521 192.609 82.5C192.703 81.9479 192.75 81.3542 192.75 80.7188V80.3906C192.75 79.776 192.703 79.1979 192.609 78.6562C192.516 78.1042 192.359 77.6198 192.141 77.2031C191.922 76.776 191.625 76.4427 191.25 76.2031C190.875 75.9635 190.406 75.8438 189.844 75.8438C189.292 75.8438 188.828 75.9635 188.453 76.2031C188.089 76.4427 187.797 76.776 187.578 77.2031C187.359 77.6198 187.203 78.1042 187.109 78.6562C187.016 79.1979 186.969 79.776 186.969 80.3906ZM205.922 65V89H200.641V65H205.922ZM214.734 72.0938V89H209.453V72.0938H214.734ZM209.141 67.7344C209.141 66.9844 209.411 66.3698 209.953 65.8906C210.495 65.4115 211.198 65.1719 212.062 65.1719C212.927 65.1719 213.63 65.4115 214.172 65.8906C214.714 66.3698 214.984 66.9844 214.984 67.7344C214.984 68.4844 214.714 69.099 214.172 69.5781C213.63 70.0573 212.927 70.2969 212.062 70.2969C211.198 70.2969 210.495 70.0573 209.953 69.5781C209.411 69.099 209.141 68.4844 209.141 67.7344ZM218.031 65H223.297V84.8438L222.75 89H218.031V65ZM233.672 80.3594V80.6875C233.672 81.9688 233.542 83.1354 233.281 84.1875C233.021 85.2396 232.62 86.151 232.078 86.9219C231.536 87.6823 230.854 88.2708 230.031 88.6875C229.208 89.1042 228.234 89.3125 227.109 89.3125C226.089 89.3125 225.214 89.0938 224.484 88.6562C223.755 88.2083 223.146 87.5938 222.656 86.8125C222.167 86.0208 221.771 85.1094 221.469 84.0781C221.167 83.0365 220.927 81.9219 220.75 80.7344V80.3438C220.927 79.1667 221.167 78.0625 221.469 77.0312C221.771 75.9896 222.167 75.0781 222.656 74.2969C223.146 73.5052 223.75 72.8906 224.469 72.4531C225.198 72.0052 226.068 71.7812 227.078 71.7812C228.214 71.7812 229.193 71.9948 230.016 72.4219C230.849 72.849 231.536 73.4479 232.078 74.2188C232.62 74.9896 233.021 75.8958 233.281 76.9375C233.542 77.9792 233.672 79.1198 233.672 80.3594ZM228.406 80.6875V80.3594C228.406 79.7448 228.37 79.1667 228.297 78.625C228.224 78.0833 228.094 77.6042 227.906 77.1875C227.719 76.7708 227.453 76.4427 227.109 76.2031C226.766 75.9635 226.318 75.8438 225.766 75.8438C225.203 75.8438 224.729 75.9375 224.344 76.125C223.969 76.3125 223.667 76.5833 223.438 76.9375C223.219 77.2812 223.062 77.7083 222.969 78.2188C222.875 78.7188 222.833 79.2865 222.844 79.9219V81.1562C222.823 82.0208 222.901 82.7604 223.078 83.375C223.255 83.9896 223.562 84.4583 224 84.7812C224.438 85.1042 225.036 85.2656 225.797 85.2656C226.359 85.2656 226.812 85.1562 227.156 84.9375C227.51 84.7188 227.776 84.4062 227.953 84C228.13 83.5938 228.25 83.1094 228.312 82.5469C228.375 81.9844 228.406 81.3646 228.406 80.6875ZM235.359 80.7188V80.3906C235.359 79.151 235.536 78.0104 235.891 76.9688C236.245 75.9167 236.766 75.0052 237.453 74.2344C238.141 73.4635 238.99 72.8646 240 72.4375C241.01 72 242.177 71.7812 243.5 71.7812C244.833 71.7812 246.005 72 247.016 72.4375C248.036 72.8646 248.891 73.4635 249.578 74.2344C250.266 75.0052 250.786 75.9167 251.141 76.9688C251.495 78.0104 251.672 79.151 251.672 80.3906V80.7188C251.672 81.9479 251.495 83.0885 251.141 84.1406C250.786 85.1823 250.266 86.0938 249.578 86.875C248.891 87.6458 248.042 88.2448 247.031 88.6719C246.021 89.099 244.854 89.3125 243.531 89.3125C242.208 89.3125 241.036 89.099 240.016 88.6719C238.995 88.2448 238.141 87.6458 237.453 86.875C236.766 86.0938 236.245 85.1823 235.891 84.1406C235.536 83.0885 235.359 81.9479 235.359 80.7188ZM240.625 80.3906V80.7188C240.625 81.3542 240.672 81.9479 240.766 82.5C240.859 83.0521 241.016 83.5365 241.234 83.9531C241.453 84.3594 241.75 84.6771 242.125 84.9062C242.5 85.1354 242.969 85.25 243.531 85.25C244.083 85.25 244.542 85.1354 244.906 84.9062C245.281 84.6771 245.578 84.3594 245.797 83.9531C246.016 83.5365 246.172 83.0521 246.266 82.5C246.359 81.9479 246.406 81.3542 246.406 80.7188V80.3906C246.406 79.776 246.359 79.1979 246.266 78.6562C246.172 78.1042 246.016 77.6198 245.797 77.2031C245.578 76.776 245.281 76.4427 244.906 76.2031C244.531 75.9635 244.062 75.8438 243.5 75.8438C242.948 75.8438 242.484 75.9635 242.109 76.2031C241.745 76.4427 241.453 76.776 241.234 77.2031C241.016 77.6198 240.859 78.1042 240.766 78.6562C240.672 79.1979 240.625 79.776 240.625 80.3906ZM253.359 80.7188V80.3906C253.359 79.151 253.536 78.0104 253.891 76.9688C254.245 75.9167 254.766 75.0052 255.453 74.2344C256.141 73.4635 256.99 72.8646 258 72.4375C259.01 72 260.177 71.7812 261.5 71.7812C262.833 71.7812 264.005 72 265.016 72.4375C266.036 72.8646 266.891 73.4635 267.578 74.2344C268.266 75.0052 268.786 75.9167 269.141 76.9688C269.495 78.0104 269.672 79.151 269.672 80.3906V80.7188C269.672 81.9479 269.495 83.0885 269.141 84.1406C268.786 85.1823 268.266 86.0938 267.578 86.875C266.891 87.6458 266.042 88.2448 265.031 88.6719C264.021 89.099 262.854 89.3125 261.531 89.3125C260.208 89.3125 259.036 89.099 258.016 88.6719C256.995 88.2448 256.141 87.6458 255.453 86.875C254.766 86.0938 254.245 85.1823 253.891 84.1406C253.536 83.0885 253.359 81.9479 253.359 80.7188ZM258.625 80.3906V80.7188C258.625 81.3542 258.672 81.9479 258.766 82.5C258.859 83.0521 259.016 83.5365 259.234 83.9531C259.453 84.3594 259.75 84.6771 260.125 84.9062C260.5 85.1354 260.969 85.25 261.531 85.25C262.083 85.25 262.542 85.1354 262.906 84.9062C263.281 84.6771 263.578 84.3594 263.797 83.9531C264.016 83.5365 264.172 83.0521 264.266 82.5C264.359 81.9479 264.406 81.3542 264.406 80.7188V80.3906C264.406 79.776 264.359 79.1979 264.266 78.6562C264.172 78.1042 264.016 77.6198 263.797 77.2031C263.578 76.776 263.281 76.4427 262.906 76.2031C262.531 75.9635 262.062 75.8438 261.5 75.8438C260.948 75.8438 260.484 75.9635 260.109 76.2031C259.745 76.4427 259.453 76.776 259.234 77.2031C259.016 77.6198 258.859 78.1042 258.766 78.6562C258.672 79.1979 258.625 79.776 258.625 80.3906ZM277.328 64.9844V89H272.062V64.9844H277.328ZM288.141 72.0938L280.797 80.7031L276.953 84.5469L274.656 81.2031L277.859 77.0312L281.828 72.0938H288.141ZM282.5 89L277.984 81.2969L281.875 78.5312L288.531 89H282.5ZM297.391 89.3125C296.016 89.3125 294.786 89.099 293.703 88.6719C292.62 88.2344 291.703 87.6354 290.953 86.875C290.214 86.1146 289.646 85.2396 289.25 84.25C288.865 83.2604 288.672 82.2135 288.672 81.1094V80.5156C288.672 79.276 288.844 78.1302 289.188 77.0781C289.531 76.0156 290.042 75.0885 290.719 74.2969C291.396 73.5052 292.245 72.8906 293.266 72.4531C294.286 72.0052 295.474 71.7812 296.828 71.7812C298.026 71.7812 299.099 71.974 300.047 72.3594C300.995 72.7448 301.797 73.2969 302.453 74.0156C303.12 74.7344 303.625 75.6042 303.969 76.625C304.323 77.6458 304.5 78.7917 304.5 80.0625V82.2031H290.688V78.9062H299.359V78.5C299.37 77.9375 299.271 77.4583 299.062 77.0625C298.865 76.6667 298.573 76.3646 298.188 76.1562C297.802 75.9479 297.333 75.8438 296.781 75.8438C296.208 75.8438 295.734 75.9688 295.359 76.2188C294.995 76.4688 294.708 76.8125 294.5 77.25C294.302 77.6771 294.161 78.1719 294.078 78.7344C293.995 79.2969 293.953 79.8906 293.953 80.5156V81.1094C293.953 81.7344 294.036 82.3021 294.203 82.8125C294.38 83.3229 294.63 83.7604 294.953 84.125C295.286 84.4792 295.682 84.7552 296.141 84.9531C296.609 85.151 297.141 85.25 297.734 85.25C298.453 85.25 299.161 85.1146 299.859 84.8438C300.557 84.5729 301.156 84.125 301.656 83.5L304.047 86.3438C303.703 86.8333 303.214 87.3073 302.578 87.7656C301.953 88.224 301.203 88.599 300.328 88.8906C299.453 89.1719 298.474 89.3125 297.391 89.3125ZM316.359 85.125V65H321.656V89H316.906L316.359 85.125ZM305.984 80.75V80.4219C305.984 79.1406 306.125 77.974 306.406 76.9219C306.688 75.8594 307.104 74.9479 307.656 74.1875C308.208 73.4167 308.896 72.8229 309.719 72.4062C310.542 71.9896 311.49 71.7812 312.562 71.7812C313.521 71.7812 314.359 72.0052 315.078 72.4531C315.797 72.8906 316.411 73.5052 316.922 74.2969C317.432 75.0885 317.849 76.0156 318.172 77.0781C318.495 78.1302 318.74 79.2656 318.906 80.4844V80.875C318.74 82.0208 318.495 83.1042 318.172 84.125C317.849 85.1354 317.432 86.0312 316.922 86.8125C316.411 87.5938 315.792 88.2083 315.062 88.6562C314.344 89.0938 313.5 89.3125 312.531 89.3125C311.458 89.3125 310.51 89.099 309.688 88.6719C308.875 88.2448 308.193 87.6458 307.641 86.875C307.099 86.1042 306.688 85.1979 306.406 84.1562C306.125 83.1146 305.984 81.9792 305.984 80.75ZM311.25 80.4219V80.75C311.25 81.3854 311.292 81.974 311.375 82.5156C311.458 83.0573 311.599 83.5365 311.797 83.9531C312.005 84.3594 312.276 84.6771 312.609 84.9062C312.953 85.1354 313.375 85.25 313.875 85.25C314.552 85.25 315.109 85.0885 315.547 84.7656C315.995 84.4427 316.323 83.9844 316.531 83.3906C316.75 82.7969 316.844 82.099 316.812 81.2969V80.0625C316.833 79.375 316.786 78.7708 316.672 78.25C316.557 77.7188 316.375 77.276 316.125 76.9219C315.885 76.5677 315.578 76.3021 315.203 76.125C314.839 75.9375 314.406 75.8438 313.906 75.8438C313.417 75.8438 313 75.9583 312.656 76.1875C312.323 76.4167 312.052 76.7396 311.844 77.1562C311.635 77.5625 311.484 78.0469 311.391 78.6094C311.297 79.1615 311.25 79.7656 311.25 80.4219Z" fill="#8247FF"/>
<path fill-rule="evenodd" clip-rule="evenodd" d="M204 136C204 117.222 188.778 102 170 102C151.222 102 136 117.222 136 136L204 136Z" fill="#CFBEFF"/>
<path fill-rule="evenodd" clip-rule="evenodd" d="M102.063 68C120.841 68 136.063 52.7777 136.063 34C136.063 15.2223 120.841 9.22795e-06 102.063 5.94475e-06C83.2853 2.66156e-06 68.063 15.2223 68.063 34C68.063 52.7777 83.2853 68 102.063 68ZM102.063 56.6667C114.581 56.6667 124.73 46.5185 124.73 34C124.73 21.4816 114.581 11.3333 102.063 11.3333C89.5445 11.3333 79.3963 21.4816 79.3963 34C79.3963 46.5185 89.5445 56.6667 102.063 56.6667Z" fill="#3F2446"/>
<path d="M60 136C26.8629 136 3.52265e-06 109.137 7.86805e-06 76L8.91712e-06 68L8 68C41.1371 68 68 94.8629 68 128L68 136L60 136Z" fill="#8247FF"/>
<path d="M68 102C68 83.2223 83.2223 68 102 68C120.778 68 136 83.2223 136 102L136 136L68 136L68 102Z" fill="#FFB932"/>
</svg>
