<svg width="100" height="100" viewBox="0 0 100 100" fill="none" xmlns="http://www.w3.org/2000/svg">
<path d="M25.6018 -9.88015e-06C39.35 -4.42349e-06 50.4951 11.1451 50.4951 24.8933V24.8933C50.4951 38.6415 39.35 49.7866 25.6018 49.7866L9.12124e-05 49.7866L0.000110626 -2.00414e-05L25.6018 -9.88015e-06Z" fill="#352446"/>
<path fill-rule="evenodd" clip-rule="evenodd" d="M100 74.8926C100 61.0262 88.8226 49.7853 75.0347 49.7853C61.2467 49.7853 50.0693 61.0262 50.0693 74.8926C50.0693 88.759 61.2467 100 75.0347 100C88.8226 100 100 88.7591 100 74.8926ZM91.6783 74.8926C91.6783 65.6484 84.2267 58.1544 75.0348 58.1544C65.8428 58.1544 58.3912 65.6483 58.3912 74.8926C58.3912 84.1369 65.8428 91.6309 75.0347 91.6309C84.2267 91.6309 91.6783 84.1369 91.6783 74.8926Z" fill="#FFBB36"/>
<rect x="50.4951" y="49.7866" width="49.7866" height="49.5049" transform="rotate(-90 50.4951 49.7866)" fill="#CFBEFF"/>
</svg>
